HIERARCHY
ROOT joint_0
{
	OFFSET 0.000000 0.000000 0.000000
	CHANNELS 6 Xposition Yposition Zposition Zrotation Yrotation Xrotation 
	JOINT joint_1
	{
		OFFSET 10.084412 4.114712 95.061035
		CHANNELS 3 Zrotation Yrotation Xrotation
		JOINT joint_2
		{
			OFFSET -1.615463 4.243484 87.329956
			CHANNELS 3 Zrotation Yrotation Xrotation
			JOINT joint_3
			{
				OFFSET -3.579636 4.638191 87.154053
				CHANNELS 3 Zrotation Yrotation Xrotation
				JOINT joint_4
				{
					OFFSET 5.443451 7.217075 123.562988
					CHANNELS 3 Zrotation Yrotation Xrotation
					JOINT joint_5
					{
						OFFSET 21.688065 15.141808 90.458008
						CHANNELS 3 Zrotation Yrotation Xrotation
						End Site
						{
							OFFSET 0.000000 0.000000 0.000000
						}
					}
				}
				JOINT joint_6
				{
					OFFSET 3.611374 -22.863556 70.791992
					CHANNELS 3 Zrotation Yrotation Xrotation
					JOINT joint_7
					{
						OFFSET 3.493607 -153.029137 -12.665039
						CHANNELS 3 Zrotation Yrotation Xrotation
						JOINT joint_8
						{
							OFFSET -14.929443 -32.628616 -254.032959
							CHANNELS 3 Zrotation Yrotation Xrotation
							JOINT joint_9
							{
								OFFSET 11.589401 -3.548126 -242.255005
								CHANNELS 3 Zrotation Yrotation Xrotation
								End Site
								{
									OFFSET 0.000000 0.000000 0.000000
								}
							}
						}
					}
				}
				JOINT joint_10
				{
					OFFSET 2.651962 30.943008 67.690918
					CHANNELS 3 Zrotation Yrotation Xrotation
					JOINT joint_11
					{
						OFFSET -6.172562 150.392159 -30.576904
						CHANNELS 3 Zrotation Yrotation Xrotation
						JOINT joint_12
						{
							OFFSET 15.363358 20.741959 -255.254028
							CHANNELS 3 Zrotation Yrotation Xrotation
							JOINT joint_13
							{
								OFFSET 23.282578 -11.086121 -241.182983
								CHANNELS 3 Zrotation Yrotation Xrotation
								End Site
								{
									OFFSET 0.000000 0.000000 0.000000
								}
							}
						}
					}
				}
			}
		}
	}
	JOINT joint_14
	{
		OFFSET -7.080551 -92.910816 -106.291992
		CHANNELS 3 Zrotation Yrotation Xrotation
		JOINT joint_15
		{
			OFFSET -38.248322 -6.001282 -411.906006
			CHANNELS 3 Zrotation Yrotation Xrotation
			JOINT joint_16
			{
				OFFSET -11.189407 -11.244659 -448.150986
				CHANNELS 3 Zrotation Yrotation Xrotation
				JOINT joint_17
				{
					OFFSET 169.870491 -24.631378 -80.352999
					CHANNELS 3 Zrotation Yrotation Xrotation
					End Site
					{
						OFFSET 0.000000 0.000000 0.000000
					}
				}
			}
		}
	}
	JOINT joint_18
	{
		OFFSET -2.796600 85.817772 -112.273987
		CHANNELS 3 Zrotation Yrotation Xrotation
		JOINT joint_19
		{
			OFFSET -44.395859 -8.174402 -411.255005
			CHANNELS 3 Zrotation Yrotation Xrotation
			JOINT joint_20
			{
				OFFSET -25.617508 -5.555587 -447.666992
				CHANNELS 3 Zrotation Yrotation Xrotation
				JOINT joint_21
				{
					OFFSET 163.870811 53.215703 -78.867000
					CHANNELS 3 Zrotation Yrotation Xrotation
					End Site
					{
						OFFSET 0.000000 0.000000 0.000000
					}
				}
			}
		}
	}
}
MOTION
Frames: 10
Frame Time: 0.016667
448.238647 7.683367 1072.269043 -10.853214 3.152213 3.093872 -0.846477 -7.091961 0.670625 -1.155681 1.143364 -0.361349 -0.978611 -1.491308 0.287630 -2.049745 4.411499 5.863043 0.000000 0.000000 0.000000 -0.875810 7.244463 -0.645411 0.348146 5.799210 -9.250835 5.364634 -56.362017 16.119064 0.000000 0.000000 0.000000 -5.658062 6.674696 4.300071 13.707975 9.466396 9.658129 7.565380 -47.094042 -43.215568 0.000000 0.000000 0.000000 23.529929 -3.270938 -8.598189 22.042672 6.803574 6.020637 23.710923 -4.448781 10.582036 0.000000 0.000000 0.000000 18.430722 -5.034631 1.995181 18.495111 3.691421 0.262081 18.385232 9.915398 5.347670 0.000000 0.000000 0.000000 
458.186279 7.070029 1077.115967 -11.068318 2.754002 3.104024 -0.808813 -7.499990 1.244772 -1.107240 1.243240 -0.483119 -0.911432 -1.568519 0.307290 -2.128265 4.510555 6.022808 0.000000 0.000000 0.000000 -1.124006 8.567241 -1.931721 -0.443578 6.311823 -10.840542 5.218314 -70.034694 19.671563 0.000000 0.000000 0.000000 -5.810299 6.285168 5.424759 18.091118 9.036624 12.568805 11.482168 -53.625161 -56.601463 0.000000 0.000000 0.000000 23.089696 -4.889375 -9.148273 21.183585 10.282450 9.413604 24.398068 -2.147653 10.984879 0.000000 0.000000 0.000000 18.395798 -5.509754 1.979495 18.260082 5.771311 1.731291 18.612563 11.830708 4.734152 0.000000 0.000000 0.000000 
467.979187 6.647352 1083.488037 -11.167078 2.220352 3.102612 -0.918591 -7.781878 1.619918 -1.118470 1.340821 -0.449221 -0.907704 -1.623505 0.253569 -2.193964 4.377999 6.353084 0.000000 0.000000 0.000000 -1.512760 9.929623 -2.862231 -1.703320 6.149682 -12.384961 4.651560 -86.090350 22.658120 0.000000 0.000000 0.000000 -5.791197 4.732929 6.525309 24.863328 7.326194 16.300500 17.909773 -58.664424 -74.285109 0.000000 0.000000 0.000000 22.094754 -7.435627 -9.895468 19.724520 15.416220 13.693213 25.487762 2.193580 11.744392 0.000000 0.000000 0.000000 18.030798 -6.365697 2.044246 17.702586 8.590461 3.497478 18.829835 14.720831 3.760608 0.000000 0.000000 0.000000 
477.844971 6.168862 1089.927002 -11.129274 1.532526 3.296176 -1.189938 -7.856875 1.648333 -1.203972 1.360454 -0.344934 -0.982368 -1.664259 0.218053 -2.257543 4.175566 6.739798 0.000000 0.000000 0.000000 -1.836532 10.730224 -3.869067 -3.332128 4.917364 -13.424911 -176.209048 -80.392240 -155.411915 0.000000 0.000000 0.000000 -5.677967 2.577123 7.595999 31.746506 4.852562 19.563680 25.228538 -58.358853 -91.553970 0.000000 0.000000 0.000000 20.715933 -9.686330 -10.750979 18.031238 20.741109 17.160209 26.360550 6.866220 12.443929 0.000000 0.000000 0.000000 17.342741 -6.835077 2.124271 16.901162 11.213438 4.879901 18.869829 18.120610 2.535304 0.000000 0.000000 0.000000 
487.961578 5.387083 1095.644043 -11.073237 0.767066 3.725182 -1.600871 -7.919594 1.424434 -1.373530 1.364267 -0.310354 -1.136932 -1.695270 0.224573 -2.303607 3.982181 7.052229 0.000000 0.000000 0.000000 -1.940133 10.866656 -5.083316 -4.951795 3.326349 -14.268004 -177.274220 -71.978771 -154.490464 0.000000 0.000000 0.000000 -5.585805 1.410196 8.798616 35.588357 3.142682 21.622396 30.388389 -55.158978 -101.733157 0.000000 0.000000 0.000000 19.427950 -11.137777 -11.866455 16.519262 25.397234 19.499071 26.684825 9.873298 12.729691 0.000000 0.000000 0.000000 16.414718 -6.469432 2.329139 15.993680 12.982244 5.338490 18.489387 21.470407 1.169989 0.000000 0.000000 0.000000 
498.248627 4.397265 1101.194946 -11.011646 -0.089487 4.330560 -2.153391 -7.976668 0.968576 -1.620573 1.365783 -0.277036 -1.369167 -1.715373 0.224473 -2.315022 3.746449 7.310355 0.000000 0.000000 0.000000 -1.887507 10.536031 -6.145767 -6.466547 1.766367 -15.363429 -178.637018 -66.318526 -154.235785 0.000000 0.000000 0.000000 -5.426386 1.074962 10.059386 37.694254 2.015606 23.302128 34.135170 -51.831965 -107.470449 0.000000 0.000000 0.000000 18.244872 -12.244291 -13.304109 15.125183 29.966897 21.315494 26.608637 11.797962 12.726720 0.000000 0.000000 0.000000 15.179052 -5.522640 2.637890 14.876841 14.226098 5.109519 17.615579 24.949476 -0.440575 0.000000 0.000000 0.000000 
508.536835 3.564846 1105.802979 -11.059794 -0.920232 4.905815 -2.577266 -7.830829 0.595033 -1.840636 1.308809 -0.238321 -1.593729 -1.701074 0.243764 -2.310304 3.485847 7.560641 0.000000 0.000000 0.000000 -1.803229 9.753742 -7.087143 -7.877516 0.208231 -16.517154 179.778133 -62.504864 -153.608567 0.000000 0.000000 0.000000 -5.238402 0.983770 11.008298 38.015389 1.374228 24.656815 36.189540 -47.335105 -110.415901 0.000000 0.000000 0.000000 17.534031 -12.759780 -14.477834 14.235719 32.924642 22.395080 26.226956 12.318336 12.495486 0.000000 0.000000 0.000000 13.933702 -4.475286 2.867540 13.698304 15.241217 4.792920 16.568393 28.270867 -2.088112 0.000000 0.000000 0.000000 
518.982849 3.260474 1109.092041 -11.384288 -1.566407 5.236219 -2.630938 -7.395518 0.707066 -1.959323 1.188415 -0.253764 -1.739369 -1.616066 0.306296 -2.298774 3.181855 7.824098 0.000000 0.000000 0.000000 -1.820027 8.693157 -8.017850 -9.079291 -1.326474 -17.742021 178.200247 -60.130360 -151.855984 0.000000 0.000000 0.000000 -5.075061 0.596652 11.464762 36.330647 1.315679 25.562855 35.855946 -40.861266 -111.518753 0.000000 0.000000 0.000000 17.560740 -12.425658 -14.922101 14.099186 32.789408 22.798889 25.707493 10.622542 12.027076 0.000000 0.000000 0.000000 13.040260 -3.627845 2.967017 12.734228 16.078757 4.817619 15.708390 31.221803 -3.547517 0.000000 0.000000 0.000000 
529.654602 3.350273 1111.380005 -11.954413 -2.061391 5.410892 -2.417474 -6.757282 1.175777 -2.009627 1.026539 -0.294653 -1.825576 -1.461366 0.381376 -2.260741 2.819234 8.046220 0.000000 0.000000 0.000000 -1.914322 7.404626 -8.759286 -9.849980 -2.639402 -19.380201 176.685847 -58.991411 -149.243727 0.000000 0.000000 0.000000 -4.889679 -0.033439 11.592436 33.655484 1.605553 26.134169 33.752636 -34.075282 -111.754609 0.000000 0.000000 0.000000 18.087999 -11.370295 -14.882850 14.480390 30.067164 22.689557 25.048945 7.113470 11.355323 0.000000 0.000000 0.000000 12.418160 -2.812255 2.987951 11.967581 16.642626 5.014567 14.962858 33.906789 -4.884289 0.000000 0.000000 0.000000 
539.348022 3.229596 1111.895020 -12.494944 -2.510578 5.623820 -2.122454 -6.134344 1.527189 -1.997684 0.888438 -0.296752 -1.839970 -1.310134 0.446791 -2.238691 2.563605 8.238674 0.000000 0.000000 0.000000 -1.979226 5.551952 -9.302001 -10.644839 -3.969091 -20.740028 174.902054 -57.647410 -145.589915 0.000000 0.000000 0.000000 -4.770995 -0.708447 11.537752 31.370805 1.765151 26.602275 31.632148 -28.531119 -112.190737 0.000000 0.000000 0.000000 18.740811 -10.318508 -14.639029 15.056278 26.753761 22.100523 24.553955 4.585957 10.932077 0.000000 0.000000 0.000000 11.711439 -2.429558 2.944607 11.124015 17.863572 5.204912 14.215921 36.189605 -6.162758 0.000000 0.000000 0.000000 
